{"title":"The Smurfs 2 2013 CAM XViD UNiQUE","uid":8780032,"size":1479033171,"categoryP":"video","categoryS":"movies","magnet":"?xt=urn:btih:c11a9389cc378750c29a2b9cb78577eb54f9fe5b&amp;dn=The+Smurfs+2+2013+CAM+XViD+UNiQUE&amp;tr=udp%3A%2F%2Ftracker.openbittorrent.com%3A80&amp;tr=udp%3A%2F%2Fopen.demonii.com%3A1337&amp;tr=udp%3A%2F%2Ftracker.coppersurfer.tk%3A6969&amp;tr=udp%3A%2F%2Fexodus.desync.com%3A6969","seeders":2,"leechers":0,"uploader":"xxxlavalxxx","files":-1,"time":1375691700,"description":" &lt;a href=&quot;http://www.imdb.com/title/tt2017020/&quot; rel=&quot;nofollow&quot; target=&quot;_NEW&quot;&gt;http://www.imdb.com/title/tt2017020/&lt;/a&gt;\n\n\n\nThe Smurfs team up with their human friends to rescue Smurfette, who has been kidnapped by Gargamel since she knows a secret spell that can turn the evil sorcerer's newest creation - creatures called the Naughties - into real Smurfs. \n\n\n\nDirector:\n Raja Gosnell \n\nWriters:\n J. David Stem (screenplay), David N. Weiss (screenplay)\n\nStars:\n Hank Azaria, Neil Patrick Harris, Jayma Mays \n\nGenres:\n  Animation |  Comedy |  Family |  Fantasy \n\nCountry:\n USA \n\nLanguage:\n English | French \n\n\n    \n Format                                   : AVI\n Format/Info                              : Audio Video Interleave\n File size                                : 1.37 GiB\n Duration                                 : 1h 37mn\n Overall bit rate                         : 2 019 Kbps\n Writing application                      : VirtualDubMod 1.5.10.2 (build 2540/release)\n Writing library                          : VirtualDubMod build 2540/release\n\n Video\n ID                                       : 0\n Format                                   : MPEG-4 Visual\n Format profile                           : Advanced Simple@L5\n Format settings, BVOP                    : 2\n Format settings, QPel                    : No\n Format settings, GMC                     : No warppoints\n Format settings, Matrix                  : Default (H.263)\n Muxing mode                              : Packed bitstream\n Codec ID                                 : XVID\n Codec ID/Hint                            : XviD\n Duration                                 : 1h 37mn\n Bit rate                                 : 1 879 Kbps\n Width                                    : 628 pixels\n Height                                   : 312 pixels\n Display aspect ratio                     : 2.013\n Frame rate                               : 29.970 fps\n Color space                              : YUV\n Chroma subsampling                       : 4:2:0\n Bit depth                                : 8 bits\n Scan type                                : Progressive\n Compression mode                         : Lossy\n Bits/(Pixel*Frame)                       : 0.320\n Stream size                              : 1.27 GiB (93%)\n Writing library                          : XviD 64\n\n Audio\n ID                                       : 1\n Format                                   : MPEG Audio\n Format version                           : Version 1\n Format profile                           : Layer 3\n Codec ID                                 : 55\n Codec ID/Hint                            : MP3\n Duration                                 : 1h 37mn\n Bit rate mode                            : Constant\n Bit rate                                 : 128 Kbps\n Channel(s)                               : 2 channels\n Sampling rate                            : 44.1 KHz\n Compression mode                         : Lossy\n Stream size                              : 88.9 MiB (6%)\n Alignment                                : Split accross interleaves\n Interleave, duration                     : 33 ms (1.00 video frame)\n Interleave, preload duration             : 500 ms\n\n\nSource Used        Los Pitufos 2 (2013) [TSscreener HQ] Castelano  /  VAiN               - Thanks\n\n\n\n\n","torrent":{"xt":"urn:btih:c11a9389cc378750c29a2b9cb78577eb54f9fe5b","amp;dn":"The+Smurfs+2+2013+CAM+XViD+UNiQUE","amp;tr":["udp%3A%2F%2Ftracker.openbittorrent.com%3A80","udp%3A%2F%2Fopen.demonii.com%3A1337","udp%3A%2F%2Ftracker.coppersurfer.tk%3A6969","udp%3A%2F%2Fexodus.desync.com%3A6969"],"infoHash":"c11a9389cc378750c29a2b9cb78577eb54f9fe5b","infoHashBuffer":{"type":"Buffer","data":[193,26,147,137,204,55,135,80,194,154,43,156,183,133,119,235,84,249,254,91]},"announce":[],"urlList":[]}}